# 3ds Max Wavefront OBJ Exporter v0.97b - (c)2007 guruware
# File Created: 23.02.2016 17:38:24

#
# object Box003
#

v  0.0625 -0.4375 -0.5000
v  0.0625 -0.2500 -0.5000
v  0.5000 -0.2500 -0.5000
v  0.5000 -0.4375 -0.5000
v  0.5000 -0.4375 -0.4375
v  0.0625 -0.4375 -0.4375
v  0.5000 -0.2500 -0.4375
v  0.0625 -0.2500 -0.4375
v  -0.4375 -0.4375 -0.5000
v  -0.4375 -0.2500 -0.5000
v  0.0000 -0.2500 -0.5000
v  0.0000 -0.4375 -0.5000
v  0.0000 -0.4375 -0.4375
v  -0.4375 -0.4375 -0.4375
v  0.0000 -0.2500 -0.4375
v  -0.4375 -0.2500 -0.4375
v  0.2500 -0.1875 -0.5000
v  0.2500 0.0000 -0.5000
v  0.5000 0.0000 -0.5000
v  0.5000 -0.1875 -0.5000
v  0.5000 -0.1875 -0.4375
v  0.2500 -0.1875 -0.4375
v  0.5000 0.0000 -0.4375
v  0.2500 0.0000 -0.4375
v  -0.2500 -0.1875 -0.5000
v  -0.2500 0.0000 -0.5000
v  0.1875 0.0000 -0.5000
v  0.1875 -0.1875 -0.5000
v  0.1875 -0.1875 -0.4375
v  -0.2500 -0.1875 -0.4375
v  0.1875 0.0000 -0.4375
v  -0.2500 0.0000 -0.4375
v  -0.5000 -0.1875 -0.5000
v  -0.5000 0.0000 -0.5000
v  -0.3125 0.0000 -0.5000
v  -0.3125 -0.1875 -0.5000
v  -0.3125 -0.1875 -0.4375
v  -0.5000 -0.1875 -0.4375
v  -0.3125 0.0000 -0.4375
v  -0.5000 0.0000 -0.4375
v  0.0625 0.0625 -0.5000
v  0.0625 0.2500 -0.5000
v  0.5000 0.2500 -0.5000
v  0.5000 0.0625 -0.5000
v  0.5000 0.0625 -0.4375
v  0.0625 0.0625 -0.4375
v  0.5000 0.2500 -0.4375
v  0.0625 0.2500 -0.4375
v  -0.4375 0.0625 -0.5000
v  -0.4375 0.2500 -0.5000
v  0.0000 0.2500 -0.5000
v  0.0000 0.0625 -0.5000
v  0.0000 0.0625 -0.4375
v  -0.4375 0.0625 -0.4375
v  0.0000 0.2500 -0.4375
v  -0.4375 0.2500 -0.4375
v  -0.2500 0.3125 -0.5000
v  -0.2500 0.5000 -0.5000
v  0.1875 0.5000 -0.5000
v  0.1875 0.3125 -0.5000
v  0.1875 0.3125 -0.4375
v  -0.2500 0.3125 -0.4375
v  0.1875 0.5000 -0.4375
v  -0.2500 0.5000 -0.4375
v  0.2500 0.3125 -0.5000
v  0.2500 0.5000 -0.5000
v  0.5000 0.5000 -0.5000
v  0.5000 0.3125 -0.5000
v  0.5000 0.3125 -0.4375
v  0.2500 0.3125 -0.4375
v  0.5000 0.5000 -0.4375
v  0.2500 0.5000 -0.4375
v  -0.5000 0.3125 -0.5000
v  -0.5000 0.5000 -0.5000
v  -0.3125 0.5000 -0.5000
v  -0.3125 0.3125 -0.5000
v  -0.3125 0.3125 -0.4375
v  -0.5000 0.3125 -0.4375
v  -0.3125 0.5000 -0.4375
v  -0.5000 0.5000 -0.4375
# 80 vertices

vn 0.0000 0.0000 -1.0000
vn 0.0000 -1.0000 -0.0000
vn 1.0000 0.0000 -0.0000
vn 0.0000 1.0000 0.0000
vn -1.0000 0.0000 -0.0000
# 5 vertex normals

vt 1.0000 0.0000 0.0000
vt 1.0000 1.0000 0.0000
vt 0.0000 1.0000 0.0000
vt 0.0000 0.0000 0.0000
# 4 texture coords

g Box003
s 2
f 1/1/1 2/2/1 3/3/1 
f 3/3/1 4/4/1 1/1/1 
s 8
f 1/4/2 4/1/2 5/2/2 
f 5/2/2 6/3/2 1/4/2 
s 16
f 4/4/3 3/1/3 7/2/3 
f 7/2/3 5/3/3 4/4/3 
s 32
f 3/4/4 2/1/4 8/2/4 
f 8/2/4 7/3/4 3/4/4 
s 64
f 2/4/5 1/1/5 6/2/5 
f 6/2/5 8/3/5 2/4/5 
s 2
f 9/1/1 10/2/1 11/3/1 
f 11/3/1 12/4/1 9/1/1 
s 8
f 9/4/2 12/1/2 13/2/2 
f 13/2/2 14/3/2 9/4/2 
s 16
f 12/4/3 11/1/3 15/2/3 
f 15/2/3 13/3/3 12/4/3 
s 32
f 11/4/4 10/1/4 16/2/4 
f 16/2/4 15/3/4 11/4/4 
s 64
f 10/4/5 9/1/5 14/2/5 
f 14/2/5 16/3/5 10/4/5 
s 2
f 17/1/1 18/2/1 19/3/1 
f 19/3/1 20/4/1 17/1/1 
s 8
f 17/4/2 20/1/2 21/2/2 
f 21/2/2 22/3/2 17/4/2 
s 16
f 20/4/3 19/1/3 23/2/3 
f 23/2/3 21/3/3 20/4/3 
s 32
f 19/4/4 18/1/4 24/2/4 
f 24/2/4 23/3/4 19/4/4 
s 64
f 18/4/5 17/1/5 22/2/5 
f 22/2/5 24/3/5 18/4/5 
s 2
f 25/1/1 26/2/1 27/3/1 
f 27/3/1 28/4/1 25/1/1 
s 8
f 25/4/2 28/1/2 29/2/2 
f 29/2/2 30/3/2 25/4/2 
s 16
f 28/4/3 27/1/3 31/2/3 
f 31/2/3 29/3/3 28/4/3 
s 32
f 27/4/4 26/1/4 32/2/4 
f 32/2/4 31/3/4 27/4/4 
s 64
f 26/4/5 25/1/5 30/2/5 
f 30/2/5 32/3/5 26/4/5 
s 2
f 33/1/1 34/2/1 35/3/1 
f 35/3/1 36/4/1 33/1/1 
s 8
f 33/4/2 36/1/2 37/2/2 
f 37/2/2 38/3/2 33/4/2 
s 16
f 36/4/3 35/1/3 39/2/3 
f 39/2/3 37/3/3 36/4/3 
s 32
f 35/4/4 34/1/4 40/2/4 
f 40/2/4 39/3/4 35/4/4 
s 64
f 34/4/5 33/1/5 38/2/5 
f 38/2/5 40/3/5 34/4/5 
s 2
f 41/1/1 42/2/1 43/3/1 
f 43/3/1 44/4/1 41/1/1 
s 8
f 41/4/2 44/1/2 45/2/2 
f 45/2/2 46/3/2 41/4/2 
s 16
f 44/4/3 43/1/3 47/2/3 
f 47/2/3 45/3/3 44/4/3 
s 32
f 43/4/4 42/1/4 48/2/4 
f 48/2/4 47/3/4 43/4/4 
s 64
f 42/4/5 41/1/5 46/2/5 
f 46/2/5 48/3/5 42/4/5 
s 2
f 49/1/1 50/2/1 51/3/1 
f 51/3/1 52/4/1 49/1/1 
s 8
f 49/4/2 52/1/2 53/2/2 
f 53/2/2 54/3/2 49/4/2 
s 16
f 52/4/3 51/1/3 55/2/3 
f 55/2/3 53/3/3 52/4/3 
s 32
f 51/4/4 50/1/4 56/2/4 
f 56/2/4 55/3/4 51/4/4 
s 64
f 50/4/5 49/1/5 54/2/5 
f 54/2/5 56/3/5 50/4/5 
s 2
f 57/1/1 58/2/1 59/3/1 
f 59/3/1 60/4/1 57/1/1 
s 8
f 57/4/2 60/1/2 61/2/2 
f 61/2/2 62/3/2 57/4/2 
s 16
f 60/4/3 59/1/3 63/2/3 
f 63/2/3 61/3/3 60/4/3 
s 32
f 59/4/4 58/1/4 64/2/4 
f 64/2/4 63/3/4 59/4/4 
s 64
f 58/4/5 57/1/5 62/2/5 
f 62/2/5 64/3/5 58/4/5 
s 2
f 65/1/1 66/2/1 67/3/1 
f 67/3/1 68/4/1 65/1/1 
s 8
f 65/4/2 68/1/2 69/2/2 
f 69/2/2 70/3/2 65/4/2 
s 16
f 68/4/3 67/1/3 71/2/3 
f 71/2/3 69/3/3 68/4/3 
s 32
f 67/4/4 66/1/4 72/2/4 
f 72/2/4 71/3/4 67/4/4 
s 64
f 66/4/5 65/1/5 70/2/5 
f 70/2/5 72/3/5 66/4/5 
s 2
f 73/1/1 74/2/1 75/3/1 
f 75/3/1 76/4/1 73/1/1 
s 8
f 73/4/2 76/1/2 77/2/2 
f 77/2/2 78/3/2 73/4/2 
s 16
f 76/4/3 75/1/3 79/2/3 
f 79/2/3 77/3/3 76/4/3 
s 32
f 75/4/4 74/1/4 80/2/4 
f 80/2/4 79/3/4 75/4/4 
s 64
f 74/4/5 73/1/5 78/2/5 
f 78/2/5 80/3/5 74/4/5 
# 100 faces

