# 3ds Max Wavefront OBJ Exporter v0.97b - (c)2007 guruware
# File Created: 18.02.2016 12:21:17

#
# object Box008
#

v  1.0000 -0.0000 0.2500
v  1.0000 0.1250 0.2500
v  0.8750 0.1250 0.2500
v  0.8750 -0.0000 0.2500
v  0.8750 -0.0000 -0.0000
v  0.8750 0.1250 -0.0000
v  0.8750 0.1250 0.1250
v  0.8750 -0.0000 0.1250
v  1.0000 0.1250 0.1250
v  1.0000 -0.0000 0.1250
v  0.0000 -0.0000 0.2500
v  0.1250 -0.0000 0.2500
v  0.1250 0.1250 0.2500
v  0.0000 0.1250 0.2500
v  0.1250 -0.0000 -0.0000
v  0.1250 -0.0000 0.1250
v  0.1250 0.1250 0.1250
v  0.1250 0.1250 -0.0000
v  0.0000 -0.0000 0.1250
v  0.0000 0.1250 0.1250
v  0.7500 0.1250 -0.0000
v  0.7500 0.0000 -0.0000
v  0.7500 0.0000 0.1250
v  0.7500 0.1250 0.1250
v  0.2500 0.0000 -0.0000
v  0.2500 0.1250 -0.0000
v  0.2500 0.1250 0.1250
v  0.2500 0.0000 0.1250
v  1.0000 -0.0000 0.7500
v  0.8750 -0.0000 0.7500
v  0.8750 0.1250 0.7500
v  1.0000 0.1250 0.7500
v  0.8750 -0.0000 1.0000
v  0.8750 -0.0000 0.8750
v  0.8750 0.1250 0.8750
v  0.8750 0.1250 1.0000
v  1.0000 -0.0000 0.8750
v  1.0000 0.1250 0.8750
v  0.0000 -0.0000 0.7500
v  0.0000 0.1250 0.7500
v  0.1250 0.1250 0.7500
v  0.1250 -0.0000 0.7500
v  0.1250 -0.0000 1.0000
v  0.1250 0.1250 1.0000
v  0.1250 0.1250 0.8750
v  0.1250 -0.0000 0.8750
v  0.0000 0.1250 0.8750
v  0.0000 -0.0000 0.8750
v  0.7500 0.1250 1.0000
v  0.7500 0.1250 0.8750
v  0.7500 0.0000 0.8750
v  0.7500 0.0000 1.0000
v  0.2500 0.0000 1.0000
v  0.2500 0.0000 0.8750
v  0.2500 0.1250 0.8750
v  0.2500 0.1250 1.0000
v  0.2500 0.1250 0.2500
v  0.7500 0.1250 0.2500
v  0.2500 0.1250 0.7500
v  0.7500 0.1250 0.7500
v  0.2500 -0.0000 0.2500
v  0.7500 -0.0000 0.2500
v  0.2500 -0.0000 0.7500
v  0.7500 -0.0000 0.7500
# 64 vertices

vn 0.0000 0.0000 1.0000
vn 1.0000 0.0000 -0.0000
vn 0.0000 0.0000 -1.0000
vn -0.0000 0.0000 1.0000
vn -1.0000 0.0000 -0.0000
vn 0.0000 -0.0000 1.0000
vn -0.0000 0.0000 -1.0000
vn 0.0000 1.0000 0.0000
vn 0.0000 1.0000 -0.0000
vn -0.0000 1.0000 -0.0000
vn -0.0000 1.0000 0.0000
vn -0.7071 0.0000 0.7071
vn -0.7071 0.0000 -0.7071
vn 0.7071 0.0000 -0.7071
vn 0.7071 0.0000 0.7071
vn 0.0000 0.0000 -0.0000
# 16 vertex normals

vt 0.0000 0.0000 0.0000
# 1 texture coords

g Box008
s off
f 1/1/1 2/1/1 3/1/1 
f 3/1/1 4/1/1 1/1/1 
f 5/1/2 6/1/2 7/1/2 
f 7/1/2 8/1/2 5/1/2 
f 8/1/3 7/1/3 9/1/3 
f 9/1/3 10/1/3 8/1/3 
f 11/1/4 12/1/4 13/1/4 
f 13/1/1 14/1/1 11/1/1 
f 15/1/5 16/1/5 17/1/5 
f 17/1/5 18/1/5 15/1/5 
f 16/1/3 19/1/3 20/1/3 
f 20/1/3 17/1/3 16/1/3 
f 21/1/5 22/1/5 23/1/5 
f 23/1/5 24/1/5 21/1/5 
f 25/1/2 26/1/2 27/1/2 
f 27/1/2 28/1/2 25/1/2 
f 24/1/3 23/1/3 28/1/3 
f 28/1/3 27/1/3 24/1/3 
f 29/1/3 30/1/3 31/1/3 
f 31/1/3 32/1/3 29/1/3 
f 33/1/2 34/1/2 35/1/2 
f 35/1/2 36/1/2 33/1/2 
f 34/1/4 37/1/4 38/1/4 
f 38/1/6 35/1/6 34/1/6 
f 39/1/3 40/1/3 41/1/3 
f 41/1/7 42/1/7 39/1/7 
f 43/1/5 44/1/5 45/1/5 
f 45/1/5 46/1/5 43/1/5 
f 46/1/6 45/1/6 47/1/6 
f 47/1/1 48/1/1 46/1/1 
f 49/1/5 50/1/5 51/1/5 
f 51/1/5 52/1/5 49/1/5 
f 53/1/2 54/1/2 55/1/2 
f 55/1/2 56/1/2 53/1/2 
f 50/1/1 55/1/1 54/1/1 
f 54/1/1 51/1/1 50/1/1 
f 30/1/2 4/1/2 3/1/2 
f 3/1/2 31/1/2 30/1/2 
f 41/1/5 13/1/5 12/1/5 
f 12/1/5 42/1/5 41/1/5 
f 38/1/8 32/1/8 31/1/8 
f 31/1/8 35/1/8 38/1/8 
f 49/1/8 36/1/8 35/1/8 
f 35/1/9 50/1/9 49/1/9 
f 44/1/10 56/1/10 55/1/10 
f 55/1/11 45/1/11 44/1/11 
f 45/1/8 41/1/8 40/1/8 
f 40/1/8 47/1/8 45/1/8 
f 20/1/9 14/1/9 13/1/9 
f 13/1/9 17/1/9 20/1/9 
f 17/1/10 27/1/10 26/1/10 
f 26/1/10 18/1/10 17/1/10 
f 24/1/9 7/1/9 6/1/9 
f 6/1/9 21/1/9 24/1/9 
f 7/1/9 3/1/9 2/1/9 
f 2/1/9 9/1/9 7/1/9 
f 24/1/8 27/1/8 57/1/8 
f 57/1/10 58/1/10 24/1/10 
f 17/1/9 13/1/9 57/1/9 
f 17/1/12 57/1/12 57/1/12 
f 27/1/11 17/1/11 57/1/11 
f 13/1/9 41/1/9 59/1/9 
f 59/1/8 57/1/8 13/1/8 
f 45/1/10 55/1/10 59/1/10 
f 45/1/13 59/1/13 59/1/13 
f 41/1/8 45/1/8 59/1/8 
f 55/1/9 50/1/9 60/1/9 
f 60/1/9 59/1/9 55/1/9 
f 35/1/8 31/1/8 60/1/8 
f 35/1/14 60/1/14 60/1/14 
f 50/1/9 35/1/9 60/1/9 
f 31/1/10 3/1/10 58/1/10 
f 58/1/9 60/1/9 31/1/9 
f 7/1/9 24/1/9 58/1/9 
f 7/1/15 58/1/15 58/1/15 
f 3/1/10 7/1/10 58/1/10 
f 58/1/1 57/1/1 61/1/1 
f 61/1/1 62/1/1 58/1/1 
f 57/1/16 57/1/16 61/1/16 
f 57/1/2 59/1/2 63/1/2 
f 63/1/2 61/1/2 57/1/2 
f 59/1/16 59/1/16 63/1/16 
f 59/1/3 60/1/3 64/1/3 
f 64/1/3 63/1/3 59/1/3 
f 60/1/16 60/1/16 64/1/16 
f 60/1/5 58/1/5 62/1/5 
f 62/1/5 64/1/5 60/1/5 
f 58/1/16 58/1/16 62/1/16 
# 88 faces

